# xmcd
#
# Track frame offsets: 
#        150
#        10142
#        23000
#        32785
#        50537
#        63465
#        79037
#        92557
#        108467
#        122765
#
# Disc length: 1835 seconds
#
# Revision: 2
# Processed by: cddbd v1.4PL0 Copyright (c) Steve Scherf et al.
# Submitted via: ExactAudioCopy v0.90a11
#
DISCID=7607290a
DTITLE=Charly McClain - Ten Year Anniversary
DYEAR=1900
DGENRE=
TTITLE0=That's What You Do To Me
TTITLE1=When A Love Ain't Right
TTITLE2=Who's Cheatin' Who
TTITLE3=Surround Me With Love
TTITLE4=Sleepin' With The Radio On
TTITLE5=Dancin' Your Memory Away
TTITLE6=Paradise Tonight (With Mickey Gilley
TTITLE7=Sentimental Ol' You
TTITLE8=Radio Heart
TTITLE9=With Just One Look In Your Eyes (With Wayne Massey)
EXTD=
EXTT0=
EXTT1=
EXTT2=
EXTT3=
EXTT4=
EXTT5=
EXTT6=with Mickey Gilley
EXTT7=
EXTT8=
EXTT9=with Wayne Massey
PLAYORDER=
